<?xml version="1.0" standalone="no"?>
<!DOCTYPE svg >
<svg version="1.0" xmlns="http://www.w3.org/2000/svg"
  width="512.000000pt" height="512.000000pt" viewBox="0 0 512.000000 512.000000"
  preserveAspectRatio="xMidYMid meet">
<metadata>
UpstateDigitalDesign.com
Designed by Brock Gingell
2023
</metadata>
<g transform="translate(0.000000,512.000000) scale(0.100000,-0.100000)"
fill="#000000" stroke="none">
<path d="M25 4405 l-25 -24 0 -1816 0 -1817 29 -29 29 -29 2496 0 c1807 0
2502 3 2519 11 14 6 30 22 36 36 8 17 11 529 11 1834 l0 1810 -25 24 -24 25
-2511 0 -2511 0 -24 -25z m4943 -322 l2 -193 -2410 0 -2410 0 0 195 0 195
2408 -2 2407 -3 3 -192z m-4 -1215 c4 -497 6 -1040 4 -1208 l-3 -305 -42 64
c-24 35 -64 106 -90 157 -27 52 -51 94 -54 94 -3 0 -20 -21 -38 -46 -18 -25
-33 -45 -35 -43 -2 2 -76 118 -166 257 l-163 254 -52 -133 -51 -132 -23 32
c-13 19 -35 34 -52 38 -29 5 -29 6 -29 78 0 158 -60 409 -140 580 -141 304
-395 567 -693 717 -107 53 -290 113 -412 133 -61 11 -155 17 -240 17 -394 0
-740 -143 -1032 -425 l-112 -109 -53 84 c-30 46 -64 100 -77 121 -12 20 -26
35 -30 33 -4 -3 -115 -172 -246 -375 l-239 -371 -54 75 -54 75 -116 -168
c-125 -181 -265 -372 -306 -418 -14 -16 -67 -92 -118 -169 l-93 -140 -3 695
c-2 382 0 863 4 1068 l6 372 2398 0 2398 0 6 -902z m-1973 474 c180 -42 365
-125 519 -233 98 -69 272 -243 342 -344 140 -202 228 -424 257 -650 14 -112
19 -185 12 -185 -3 0 -80 117 -170 261 -132 209 -167 257 -177 247 -6 -7 -80
-119 -164 -248 -83 -129 -155 -235 -160 -235 -5 0 -23 20 -40 44 l-32 44 -62
-119 c-72 -139 -132 -231 -176 -268 -25 -20 -40 -26 -68 -23 -43 5 -45 8 -153
221 l-70 139 -50 -69 c-27 -38 -53 -70 -57 -71 -4 -1 -115 164 -246 368 -151
234 -242 366 -247 358 -4 -7 -38 -92 -75 -189 l-68 -177 -43 47 c-50 56 -84
68 -120 45 -14 -9 -26 -15 -28 -13 -2 3 -316 498 -339 536 -13 21 201 226 313
301 167 111 363 191 556 226 117 21 430 14 546 -13z m-1625 -749 c0 -113 6
-172 22 -250 27 -126 28 -255 3 -382 -21 -103 -18 -123 25 -175 28 -33 28 -29
8 -216 -5 -47 -3 -58 16 -77 11 -13 27 -23 34 -23 23 0 70 62 130 169 89 158
118 184 171 157 55 -29 97 14 215 217 34 59 65 109 69 112 4 2 26 -27 50 -66
24 -38 46 -69 51 -69 4 0 19 19 33 42 l25 42 7 -54 c4 -30 14 -72 21 -94 34
-94 14 -185 -62 -285 -56 -73 -49 -91 65 -174 160 -115 274 -244 321 -365 19
-49 19 -53 3 -48 -10 3 -130 39 -268 80 -181 54 -311 86 -470 115 l-220 40
-318 -42 -317 -43 -202 134 -201 134 -155 -41 c-86 -22 -157 -39 -159 -37 -2
1 15 24 38 49 43 49 80 67 103 48 10 -9 35 21 117 142 57 83 128 178 159 210
48 49 61 57 93 57 20 0 37 4 37 10 0 5 16 42 35 83 23 49 35 88 35 117 0 42
17 117 30 133 3 4 21 -13 39 -39 19 -25 37 -42 41 -37 4 4 89 135 190 291 100
155 183 282 184 282 1 0 2 -66 2 -147z m2393 -698 c15 -57 13 -142 -4 -226
l-15 -72 26 -39 c24 -35 26 -43 19 -96 -11 -81 -9 -104 10 -118 28 -20 43 -6
100 90 67 114 83 130 125 121 42 -9 67 14 136 133 30 50 56 92 58 92 2 0 16
-20 30 -45 30 -51 38 -54 58 -23 14 21 16 18 33 -54 22 -93 16 -126 -32 -196
-33 -48 -35 -55 -23 -80 7 -15 32 -89 55 -165 l42 -138 -26 5 c-14 3 -168 19
-341 37 l-315 32 -101 97 c-147 141 -184 165 -260 166 -41 0 -71 6 -88 17 -26
17 -26 18 -10 50 34 64 87 137 105 142 26 9 36 30 59 130 11 48 23 92 26 97 4
6 17 -3 30 -18 14 -19 26 -25 32 -19 4 6 62 93 128 195 l119 184 7 -129 c3
-72 11 -148 17 -170z"/>
<path d="M4474 4165 c-16 -40 0 -45 139 -45 107 0 137 3 147 15 7 8 10 22 6
30 -8 22 -284 22 -292 0z"/>
<path d="M360 4163 c-51 -19 -68 -85 -30 -123 45 -45 120 -11 120 53 0 47 -49
85 -90 70z"/>
<path d="M665 4160 c-49 -19 -64 -82 -30 -120 24 -26 79 -26 105 0 52 52 -8
148 -75 120z"/>
<path d="M950 4142 c-35 -36 -38 -60 -9 -96 41 -52 129 -22 129 45 0 34 -27
66 -62 75 -22 5 -33 0 -58 -24z"/>
<path d="M1622 4144 c-26 -18 -30 -65 -6 -88 14 -14 119 -16 1004 -16 1088 0
1020 -4 1020 60 0 63 54 60 -1020 60 -867 0 -978 -2 -998 -16z"/>
<path d="M4474 4045 c-16 -40 -1 -45 146 -45 116 0 142 3 146 15 4 8 1 22 -6
30 -18 22 -278 22 -286 0z"/>
<path d="M2392 3010 c70 -220 101 -300 116 -296 10 3 72 15 140 27 67 12 122
26 122 30 0 12 -163 51 -194 46 -29 -4 -35 1 -110 102 -43 58 -76 99 -74 91z"/>
<path d="M3213 2987 c-17 -17 -36 -42 -42 -54 -7 -15 -24 -23 -53 -28 -108
-16 -108 -17 -14 -37 49 -10 90 -17 91 -15 6 7 54 161 52 164 -2 1 -17 -12
-34 -30z"/>
<path d="M3420 2629 c-22 -35 -48 -84 -57 -110 l-17 -48 -116 -42 c-63 -23
-117 -43 -119 -45 -3 -3 67 -3 154 -2 l160 3 21 150 c12 83 20 152 18 154 -1
2 -21 -25 -44 -60z"/>
</g>
</svg>
