<?xml version="1.0" standalone="no"?>
<svg version="1.0" xmlns="http://www.w3.org/2000/svg"
width="1096.000000pt" height="1096.000000pt" viewBox="0 0 1096.000000 1096.000000"
preserveAspectRatio="xMidYMid meet">
<g transform="translate(0.000000,1096.000000) scale(0.100000,-0.100000)"
fill="#000000" stroke="none">
<path d="M76 9457 c-21 -12 -47 -38 -57 -57 -18 -34 -19 -154 -19 -3909 l0
-3873 25 -47 c16 -28 40 -55 65 -68 l39 -23 5347 0 c5321 0 5348 0 5388 20 23
11 52 37 66 57 l25 38 0 3895 0 3895 -22 31 c-13 17 -38 39 -57 48 -31 15
-469 16 -5398 16 l-5363 0 -39 -23z m10559 -715 c0 -395 0 -403 -20 -407 -11
-2 -2331 -3 -5155 -2 l-5135 2 -1 408 0 407 5155 -2 5155 -3 1 -403z"/>
<path d="M9672 8952 c-73 -3 -84 -5 -97 -26 -17 -25 -14 -71 5 -90 7 -7 108
-11 306 -12 l295 -1 15 28 c19 37 18 56 -4 79 -17 18 -35 20 -228 22 -115 2
-246 2 -292 0z"/>
<path d="M743 8899 c-86 -43 -116 -159 -61 -232 37 -47 89 -70 148 -65 55 6
91 29 119 79 77 136 -67 288 -206 218z"/>
<path d="M1402 8900 c-74 -33 -107 -126 -74 -212 12 -29 70 -80 99 -85 111
-21 194 39 201 147 3 46 -1 61 -23 95 -45 68 -125 90 -203 55z"/>
<path d="M2058 8899 c-64 -33 -100 -118 -77 -186 10 -33 59 -105 59 -89 0 4
11 -1 25 -10 14 -9 25 -14 25 -11 0 3 16 1 34 -3 19 -4 38 -5 41 -1 4 3 11 7
16 7 5 1 13 2 18 3 5 0 23 14 41 31 75 70 68 192 -16 249 -45 31 -116 35 -166
10z"/>
<path d="M3860 8903 c0 -4 -78 -7 -172 -6 -203 2 -225 -5 -257 -71 -15 -32
-18 -51 -12 -77 16 -69 49 -100 116 -105 22 -1 41 -4 43 -4 3 -3 41 -3 45 0 8
6 107 4 107 -3 0 -5 5 -5 11 -2 16 11 69 12 69 2 0 -4 5 -5 11 -2 16 11 69 12
69 2 0 -4 5 -5 11 -2 16 11 69 12 75 3 3 -5 10 -5 17 -1 16 10 57 10 57 0 0
-4 5 -5 11 -2 16 11 69 12 75 3 3 -5 10 -5 17 -1 16 10 57 10 57 0 0 -4 5 -5
11 -2 13 9 69 13 69 6 0 -3 14 -6 30 -6 17 0 30 2 30 5 0 3 23 5 50 5 28 0 50
-4 50 -8 0 -5 5 -5 11 -2 14 10 69 13 74 5 3 -6 50 -5 50 0 0 1 24 3 53 3 28
1 52 -2 52 -6 0 -5 5 -5 11 -2 15 10 69 12 69 3 0 -4 6 -5 13 -3 24 9 98 11
103 3 3 -5 10 -5 16 -2 9 6 163 9 178 4 13 -4 70 -4 70 0 0 3 23 5 50 5 28 0
50 -4 50 -8 0 -5 5 -5 11 -2 14 10 69 13 74 5 4 -6 40 -5 55 0 14 6 47 4 63
-3 9 -4 17 -4 17 0 0 4 23 8 50 8 28 0 50 -4 50 -8 0 -5 5 -5 11 -2 14 10 69
13 74 5 4 -6 40 -5 55 0 14 6 47 4 63 -3 9 -4 17 -4 17 0 0 4 23 8 50 8 28 0
50 -4 50 -8 0 -4 8 -4 18 0 15 7 48 9 62 3 15 -5 51 -6 55 0 5 8 60 5 74 -5 6
-3 11 -3 11 2 0 4 23 8 50 8 28 0 50 -4 50 -8 0 -4 8 -4 18 0 15 7 48 9 62 3
15 -5 51 -6 55 0 5 8 60 5 74 -5 6 -3 11 -3 11 2 0 4 23 8 50 8 28 0 50 -4 50
-8 0 -4 8 -4 18 0 15 7 48 9 62 3 15 -5 51 -6 55 0 5 8 60 5 74 -5 6 -3 11 -3
11 2 0 4 23 8 50 8 28 0 50 -4 50 -8 0 -4 8 -4 18 0 15 7 48 9 62 3 15 -5 51
-6 55 0 5 8 60 5 74 -5 6 -3 11 -3 11 2 0 4 23 8 50 8 28 0 50 -4 50 -8 0 -4
8 -4 18 0 15 7 48 9 62 3 15 -5 51 -6 55 0 5 8 60 5 74 -5 6 -3 11 -3 11 2 0
4 23 8 50 8 28 0 50 -4 50 -8 0 -5 5 -5 11 -2 14 10 69 13 74 5 3 -5 50 -5 50
0 0 1 24 3 53 4 34 2 60 10 73 22 64 58 63 153 -3 209 -20 17 -39 20 -140 21
-65 1 -125 4 -133 8 -8 3 -15 2 -15 -2 0 -9 -214 -7 -229 2 -6 4 -11 4 -11 -1
0 -9 -361 -9 -385 1 -8 3 -15 2 -15 -2 0 -9 -214 -7 -229 2 -6 4 -11 4 -11 -1
0 -9 -361 -9 -385 1 -8 3 -15 2 -15 -2 0 -9 -214 -7 -229 2 -6 4 -11 4 -11 -1
0 -9 -361 -9 -385 1 -8 3 -15 2 -15 -2 0 -9 -214 -7 -229 2 -6 4 -11 4 -11 -1
0 -9 -201 -9 -225 0 -8 4 -15 3 -15 -1 0 -9 -214 -7 -229 2 -6 4 -11 4 -11 -1
0 -9 -201 -9 -225 0 -8 4 -15 3 -15 -1 0 -9 -214 -7 -229 2 -6 4 -11 4 -11 -1
0 -9 -201 -9 -225 0 -8 4 -15 3 -15 -1 0 -9 -214 -7 -229 2 -6 4 -11 4 -11 -1z"/>
<path d="M9580 8670 c-13 -13 -17 -29 -15 -51 5 -36 16 -51 42 -56 34 -6 123
-8 123 -3 0 3 18 5 40 5 22 0 40 -3 40 -7 0 -4 11 -3 24 2 13 5 27 6 30 3 8
-8 133 -6 146 2 6 3 10 2 10 -4 0 -6 11 -7 28 -2 30 7 90 6 99 -3 3 -3 18 3
33 14 23 16 27 26 25 56 -4 64 -7 64 -322 64 -265 -1 -285 -2 -303 -20z"/>
</g>
</svg>
